# xmcd
#
# Track frame offsets:
# 150
# 13807
# 25827
# 40842
# 54666
# 72921
# 88041
# 103558
# 119421
# 134341
# 150715
# 167778
#
# Disc length: 2499 seconds
#
#
# Revision: 0
# Processed by: cddbd v1.5.2PL0 Copyright (c) Steve Scherf et al.
# Submitted via: FreeRIP 2.96 
#
DISCID=9e09c10c
DTITLE=Cheiro de paixão - Linda
DYEAR=2010
DGENRE=Bailão
TTITLE0=Linda
TTITLE1=Chora no ombro do véio
TTITLE2=Loira ou morena
TTITLE3=Sogra casamenteira
TTITLE4=Endereço da felicidade
TTITLE5=Louco pra amar
TTITLE6=Mulher dividida
TTITLE7=Baile da linguiça
TTITLE8=Pensando nela
TTITLE9=Olha a menina
TTITLE10=Sonho de um cantador
TTITLE11=Karina
EXTD=
EXTT0=
EXTT1=
EXTT2=
EXTT3=
EXTT4=
EXTT5=
EXTT6=
EXTT7=
EXTT8=
EXTT9=
EXTT10=
EXTT11=
PLAYORDER=
